<svg xmlns="http://www.w3.org/2000/svg" width="96" height="96" fill="none"><path d="M12 24a4 4 0 0 1 4-4h56a4 4 0 0 1 4 4v32a4 4 0 0 1-4 4H16a4 4 0 0 1-4-4V24z" fill="#003087"/><path d="M20 40a4 4 0 0 1 4-4h56a4 4 0 0 1 4 4v32a4 4 0 0 1-4 4H24a4 4 0 0 1-4-4V40z" fill="#0070e0"/><path d="M76 36v20a4 4 0 0 1-4 4H20V40a4 4 0 0 1 4-4h52z" fill="#faf8f5"/><path d="M57.989 49.988H33a1 1 0 0 1-1-1v-1.5a1 1 0 0 1 1-1h24.846l-3.305-3.305a1 1 0 0 1 0-1.414l1.061-1.061a1 1 0 0 1 1.414 0l6.894 6.894a1 1 0 0 1 0 1.414l-6.894 6.894a1 1 0 0 1-1.414 0l-1.061-1.061a1 1 0 0 1 0-1.414l3.448-3.448z" fill="#003087"/></svg>